<?xml version="1.0" standalone="no"?>
<!DOCTYPE svg PUBLIC "-//W3C//DTD SVG 20010904//EN"
 "http://www.w3.org/TR/2001/REC-SVG-20010904/DTD/svg10.dtd">
<svg version="1.0" xmlns="http://www.w3.org/2000/svg"
 width="512.000000pt" height="512.000000pt" viewBox="0 0 512.000000 512.000000"
 preserveAspectRatio="xMidYMid meet">

<g transform="translate(0.000000,512.000000) scale(0.100000,-0.100000)"
fill="#000000" stroke="none">
<path d="M2863 3963 c-10 -10 -47 -77 -83 -149 -59 -123 -62 -134 -51 -162 8
-19 27 -36 52 -47 21 -10 39 -21 39 -25 0 -3 -16 -22 -36 -41 -56 -53 -64 -77
-64 -184 0 -93 1 -98 29 -126 37 -37 65 -37 102 0 27 27 29 35 29 102 l0 73
74 76 c41 42 78 89 82 104 9 37 -17 71 -79 103 -26 14 -47 29 -47 34 0 5 18
45 40 89 47 93 49 112 15 145 -29 30 -74 33 -102 8z"/>
<path d="M1905 3025 l-220 -63 -57 -62 c-99 -107 -150 -241 -129 -338 29 -136
163 -263 373 -352 91 -39 140 -39 199 -1 104 68 181 163 257 318 77 158 78
176 12 342 -30 76 -65 148 -82 167 -27 31 -81 55 -118 53 -8 0 -114 -29 -235
-64z m115 -241 c15 -9 35 -29 44 -44 32 -56 12 -130 -44 -164 -104 -61 -225
60 -163 165 32 54 109 74 163 43z"/>
<path d="M2914 3071 c-57 -26 -76 -54 -135 -203 -64 -164 -63 -184 10 -335
103 -212 242 -353 349 -353 80 0 270 98 364 188 66 63 102 119 119 186 25 99
-31 244 -134 350 l-62 63 -220 62 c-121 34 -227 61 -235 61 -8 0 -33 -9 -56
-19z m300 -286 c84 -40 87 -160 6 -209 -103 -61 -225 60 -164 163 34 57 96 75
158 46z"/>
<path d="M2488 2138 c-19 -24 -65 -83 -101 -132 -72 -96 -71 -91 -41 -188 17
-53 29 -65 72 -74 27 -6 37 0 86 46 l56 53 56 -53 c49 -46 59 -52 86 -46 43 9
55 21 72 74 31 100 34 89 -72 228 -95 126 -98 129 -138 132 -39 3 -44 0 -76
-40z"/>
<path d="M3690 1699 c-30 -28 -85 -68 -122 -90 -97 -57 -124 -83 -158 -152
-33 -68 -46 -137 -36 -190 6 -33 10 -36 57 -46 123 -27 230 -7 322 59 104 75
135 166 99 287 -20 64 -85 184 -100 183 -4 -1 -32 -24 -62 -51z"/>
<path d="M2509 1171 l-29 -29 0 -227 0 -226 25 -24 c15 -16 36 -25 55 -25 19
0 40 9 55 25 l25 24 0 226 0 227 -29 29 c-37 37 -65 37 -102 0z"/>
<path d="M2844 1188 c-39 -19 -44 -49 -44 -279 l0 -220 25 -24 c15 -16 36 -25
55 -25 19 0 40 9 55 25 l25 24 0 220 c0 234 -4 261 -47 280 -29 13 -41 13 -69
-1z"/>
<path d="M3164 1188 c-39 -19 -44 -49 -44 -279 l0 -220 25 -24 c15 -16 36 -25
55 -25 19 0 40 9 55 25 l25 24 0 220 c0 234 -4 261 -47 280 -29 13 -41 13 -69
-1z"/>
</g>
</svg>
